# xmcd
# Copyright (C) 1995-1998 Ti Kan
#
# Track frame offsets:
#       150
#       16332
#       31420
#       41090
#       55717
#       67065
#       80650
#       83825
#       96665
#       111402
#       118062
#       131740
#       145227
#       168487
#       179117
#       186362
#       190982
#       201445
#       221822
#
# Disc length: 3844 seconds
#
# Revision: 0
# Processed by: cddbd v1.5.2PL0 Copyright (c) Steve Scherf et al.
# Submitted via: CD-Transfer v1.0
#
DISCID=310f0213
DTITLE=Les Radiateurs - Dingleberry Pie
DYEAR=94
DGENRE=
TTITLE0=Legoland
TTITLE1=By Your Side
TTITLE2=Yeah!
TTITLE3=Inervia
TTITLE4=Shutthefuckupcutthecrap (No Brain No Pain)
TTITLE5=Pimprenelle
TTITLE6=Four Beans
TTITLE7=Outer Space
TTITLE8=Dead Meat
TTITLE9=Don't Wanna
TTITLE10=Terminal Waste
TTITLE11=Baby Scumbag
TTITLE12=Daisybiscus
TTITLE13=Full Of Your Mind
TTITLE14=Love's A Beautiful Thing
TTITLE15=Dancefloor
TTITLE16=Shutthefuckup... (Hip Hop Street Credibility Remix)
TTITLE17=Jesus (Dezaley-Doom-13-Remix)
TTITLE18=Psychotic Grotto
EXTD=
EXTT0=
EXTT1=
EXTT2=
EXTT3=
EXTT4=
EXTT5=
EXTT6=
EXTT7=
EXTT8=
EXTT9=
EXTT10=
EXTT11=
EXTT12=
EXTT13=
EXTT14=
EXTT15=
EXTT16=
EXTT17=
EXTT18=
PLAYORDER=
